<?xml version="1.0" encoding="UTF-8" standalone="no"?>
<!-- Created with Inkscape (http://www.inkscape.org/) -->

<svg
   width="210mm"
   height="297mm"
   viewBox="0 0 210 297"
   version="1.1"
   id="svg1"
   xml:space="preserve"
   xmlns="http://www.w3.org/2000/svg"
   xmlns:svg="http://www.w3.org/2000/svg"><defs
     id="defs1" /><g
     id="layer1"><g
       id="g69"
       transform="matrix(1.2426103,0,0,1.1510078,-22.189062,-2.5619688)"><path
         style="fill:#4ecbce"
         d="m 69.314863,154.18534 -5.159375,-0.15653 -1.449171,-0.5827 c -0.797044,-0.32049 -2.048724,-0.99564 -2.78151,-1.50032 l -1.33234,-0.91762 -0.982679,-1.28858 c -0.540473,-0.70871 -1.308511,-1.99358 -1.70675,-2.85527 l -0.724072,-1.5667 -0.185772,-5.02709 -0.185771,-5.02708 0.03889,-19.18229 c 0.02139,-10.55026 0.07301,-16.289318 0.114704,-12.75346 l 0.07581,6.42884 0.259851,-0.1606 0.25985,-0.16059 v 0.29581 0.29581 l 0.248322,-0.15347 0.248322,-0.15347 0.272799,0.46858 0.272799,0.46859 0.008,-0.55483 0.008,-0.55483 0.493319,-0.5688 0.49332,-0.5688 0.196947,1.25592 0.196948,1.25592 0.181716,16.0073 0.181716,16.00729 0.593426,1.49781 c 0.68218,1.72182 1.621994,2.98888 3.186409,4.29591 l 1.099038,0.91822 1.517226,0.61278 1.517225,0.61278 h 35.05729 35.05729 l 1.53051,-0.61775 1.5305,-0.61774 1.56827,-1.45194 1.56826,-1.45194 0.66735,-1.3699 c 0.36704,-0.75344 0.74365,-1.75685 0.83691,-2.2298 l 0.16956,-0.85989 h 0.23981 c 0.1319,0 0.30808,0.17791 0.39153,0.39535 l 0.15171,0.39536 0.23686,-0.14639 0.23686,-0.14638 v 0.28019 0.2802 h 0.59781 0.59781 l 0.32377,0.51843 0.32376,0.51842 -0.16655,0.87064 c -0.0916,0.47885 -0.50714,1.55348 -0.92341,2.38807 l -0.75685,1.51743 -1.48917,1.48917 -1.48917,1.48917 -2.01473,0.95761 -2.01473,0.95761 -9.39271,0.17894 c -11.15992,0.21261 -52.447326,0.18955 -59.795831,-0.0334 z m 57.444587,-51.34935 -0.59868,-0.80976 -0.36553,0.30337 -0.36554,0.30336 -0.27617,-0.17068 -0.27617,-0.17069 v -2.835925 -2.835931 l 0.42357,-0.604738 c 0.37874,-0.540716 1.36702,-1.121092 2.08997,-1.22734 0.14552,-0.02139 0.6876,0.167446 1.20463,0.419628 l 0.94005,0.458513 0.31672,0.69513 0.31672,0.69513 -0.002,1.508905 c -0.001,0.829897 -0.0777,2.137098 -0.16996,2.904878 l -0.16766,1.39598 -0.45856,-0.41499 -0.45855,-0.41498 -0.67732,0.80495 c -0.37252,0.44272 -0.72214,0.80494 -0.77693,0.80494 -0.0548,0 -0.36902,-0.36439 -0.69829,-0.80975 z m 1.68885,-1.19862 0.63526,-0.68546 0.27815,0.17191 0.27815,0.1719 v -0.25189 c 0,-0.13854 -0.1797,-0.32085 -0.39933,-0.40513 -0.21963,-0.0843 -0.38413,-0.24584 -0.36554,-0.35903 0.0186,-0.11319 0.0197,-0.473694 0.002,-0.801116 l -0.0313,-0.595313 h -0.26459 -0.26458 v 0.629062 0.629057 l -0.36334,0.30155 -0.36334,0.30154 -0.43041,-0.16516 -0.43041,-0.16516 -0.004,-0.567009 c -0.002,-0.311852 -0.10453,-0.725502 -0.22733,-0.91922 l -0.22328,-0.352215 -0.18242,1.140755 -0.18241,1.140759 -0.24766,-0.39167 c -0.13621,-0.21541 -0.25833,-0.33213 -0.27138,-0.25937 -0.013,0.0728 -0.0697,0.3746 -0.126,0.67075 l -0.1023,0.53846 0.71727,0.0543 0.71727,0.0543 0.26323,0.39947 c 0.38201,0.57973 0.86646,0.49248 1.58792,-0.28598 z m -73.369356,-6.85517 0.0098,-0.79375 0.12197,0.468056 c 0.06708,0.257431 0.06267,0.614618 -0.0098,0.79375 L 55.06914,95.57595 Z m 72.542136,-3.307292 v -2.778125 l 0.0972,1.389062 c 0.0534,0.763985 0.0534,2.014141 0,2.778125 l -0.0972,1.389063 z m -72.306485,2.116667 c -0.008,-0.218282 0.100871,-0.575469 0.241935,-0.79375 l 0.256481,-0.396875 -0.01455,0.264583 c -0.008,0.145521 -0.116871,0.502708 -0.241936,0.79375 l -0.22739,0.529167 z m 1.292382,-3.160265 c 0.151424,-0.282937 0.406088,-0.595253 0.56592,-0.694035 l 0.290605,-0.179603 -0.454749,0.694034 c -0.529595,0.808266 -0.803834,0.930857 -0.401776,0.179604 z m 1.595386,-1.999111 c 0.493656,-0.509323 0.957087,-0.926041 1.029847,-0.926041 0.07276,0 -0.271608,0.416718 -0.765263,0.926041 -0.493655,0.509323 -0.957086,0.926042 -1.029847,0.926042 -0.07276,0 0.271608,-0.416719 0.765263,-0.926042 z m 1.322917,-1.025936 c 0,-0.05494 0.208359,-0.263302 0.463021,-0.463021 l 0.463021,-0.363126 -0.363126,0.463021 c -0.345644,0.440729 -0.562916,0.580887 -0.562916,0.363126 z m 2.116667,-1.487605 c 0.218281,-0.141064 0.515937,-0.256481 0.661458,-0.256481 h 0.264583 l -0.396875,0.256481 c -0.218281,0.141064 -0.515937,0.25648 -0.661458,0.25648 h -0.264583 z m 2.84427,-0.968979 c 0.181901,-0.0734 0.479557,-0.0734 0.661458,0 l 0.33073,0.133452 h -0.661459 -0.661458 z m 2.38125,-0.27608 c 0.327422,-0.06306 0.863203,-0.06306 1.190625,0 l 0.595312,0.114662 h -1.190625 -1.190625 z m 7.689452,0.006 c 0.190997,-0.07643 0.4192,-0.06703 0.507118,0.02089 l 0.159853,0.159852 -0.507118,-0.02089 -0.507118,-0.02089 z m 53.184421,-0.791386 0.15244,-0.747665 0.1041,0.491124 0.1041,0.491125 -0.25654,0.256541 -0.25654,0.256541 z m -0.69837,-1.591946 -0.0489,-2.167198 0.28764,-0.177769 0.28764,-0.17777 0.26907,0.269073 0.26907,0.269073 -0.19668,1.149852 -0.19668,1.149853 -0.2006,-0.529167 -0.20061,-0.529166 -0.11048,1.455208 -0.11048,1.455208 z"
         id="path72" /><path
         style="fill:#9e59e8"
         d="m 147.10486,143.92855 -0.39438,-0.59531 h -0.59781 -0.59781 v -0.30868 -0.30868 l -0.17228,0.17228 -0.17228,0.17227 -0.35281,-0.4589 -0.35282,-0.45891 -0.008,-22.62188 c -0.008,-23.196528 -0.0333,-24.809143 -0.39955,-25.904393 l -0.21292,-0.636686 0.30323,0.187407 0.30323,0.187407 -0.15116,-0.393911 -0.15115,-0.39391 -0.37498,0.143893 -0.37498,0.143892 v -0.29289 c 0,-0.16109 0.11906,-0.292891 0.26458,-0.292891 0.14552,0 0.26459,-0.127567 0.26459,-0.283482 0,-0.155915 0.16243,-0.445918 0.36096,-0.64445 l 0.36097,-0.360967 0.31617,0.31372 0.31616,0.31372 -0.16794,-0.529166 -0.16795,-0.529167 0.30547,0.476874 0.30546,0.476874 -0.35163,0.433811 -0.35163,0.433811 0.33073,-0.198696 0.33073,-0.198695 0.0209,0.478635 0.0209,0.478636 0.134,-0.332377 0.13401,-0.332378 0.24198,0.149555 c 0.13309,0.08225 0.24577,0.410419 0.2504,0.729253 0.005,0.318833 0.18322,0.810813 0.39688,1.093288 l 0.38846,0.51359 v -0.275671 c 0,-0.489145 -0.55457,-2.039102 -1.22911,-3.435229 l -0.65747,-1.360802 -1.41573,-1.351177 c -0.77865,-0.743147 -1.49665,-1.351177 -1.59556,-1.351177 -0.0989,0 -0.49586,-0.221598 -0.88212,-0.492441 -0.91101,-0.638784 -2.45106,-1.131435 -4.27218,-1.366638 l -1.45721,-0.188205 1.09661,-0.03469 1.09661,-0.03469 1.7224,0.531994 1.72239,0.531994 1.54662,1.139893 c 2.39648,1.76626 3.95758,4.175833 4.57173,7.056536 l 0.31024,1.455209 -0.0802,24.473957 -0.0802,24.47396 z M 68.562889,126.39991 v -0.66146 l 0.133452,0.33073 c 0.0734,0.1819 0.0734,0.47956 0,0.66146 l -0.133452,0.33073 z m 64.822911,0 v -0.66146 l 0.13345,0.33073 c 0.0734,0.1819 0.0734,0.47956 0,0.66146 l -0.13345,0.33073 z m -60.895938,-2.48115 c 0,-0.0549 0.20836,-0.2633 0.463021,-0.46302 l 0.463021,-0.36312 -0.363126,0.46302 c -0.345644,0.44073 -0.562916,0.58088 -0.562916,0.36312 z m 49.477078,0 c 0,-0.0549 0.20836,-0.2633 0.46302,-0.46302 l 0.46302,-0.36312 -0.36312,0.46302 c -0.34565,0.44073 -0.56292,0.58088 -0.56292,0.36312 z m -51.196869,-2.54593 c 0.263389,-0.29105 0.53842,-0.52917 0.611181,-0.52917 0.07276,0 -0.08321,0.23812 -0.346598,0.52917 -0.263389,0.29104 -0.53842,0.52916 -0.611181,0.52916 -0.07276,0 0.08321,-0.23812 0.346598,-0.52916 z m 49.477079,0 c 0.26339,-0.29105 0.53842,-0.52917 0.61118,-0.52917 0.0728,0 -0.0832,0.23812 -0.3466,0.52917 -0.26339,0.29104 -0.53842,0.52916 -0.61118,0.52916 -0.0728,0 0.0832,-0.23812 0.3466,-0.52916 z m 22.69237,-29.074266 0.0421,-0.559073 h 0.37297 0.37297 l -0.35441,0.463021 c -0.19492,0.254661 -0.3817,0.506244 -0.41508,0.559073 -0.0334,0.05283 -0.0417,-0.15553 -0.0186,-0.463021 z m 0.36299,-2.808031 c 0.0838,-0.218281 0.2732,-0.396875 0.42097,-0.396875 h 0.26867 l -0.32938,0.396875 c -0.18115,0.218281 -0.37059,0.396875 -0.42096,0.396875 -0.0504,0 -0.0231,-0.178594 0.0607,-0.396875 z m -16.25545,-2.910417 -0.0521,-1.852083 -3.50619,0.02291 -3.50619,0.02291 3.57187,-0.155205 c 1.96453,-0.08536 3.60715,-0.139777 3.65026,-0.120922 0.0431,0.01886 0.037,0.911825 -0.0136,1.984375 l -0.0919,1.950092 z m 0.79125,-0.264583 -0.0514,-1.852084 3.63847,0.131507 3.63847,0.131508 -3.49331,0.07452 -3.4933,0.07452 -0.0937,1.646053 -0.0937,1.646053 z M 70.703925,84.665845 c 0.691224,-0.0545 1.822318,-0.0545 2.513541,0 l 1.256771,0.0991 h -2.513541 -2.513542 z m 6.746874,-0.0014 c 0.909506,-0.05167 2.397787,-0.05167 3.307292,0 l 1.653645,0.09394 h -3.307291 -3.307291 z m 48.683331,-4.741832 c 0.1819,-0.0734 0.47956,-0.0734 0.66146,0 l 0.33073,0.133452 h -0.66146 -0.66146 z m 2.5967,-1.334715 -0.18066,-0.474432 0.32877,0.32632 c 0.18082,0.179475 0.26211,0.39297 0.18065,0.474431 -0.0815,0.08146 -0.2294,-0.06538 -0.32876,-0.326319 z m -28.38994,-6.617417 c 0.40219,-0.06082 0.9975,-0.05919 1.32292,0.0036 l 0.59167,0.114185 -1.32291,-0.0036 -1.322918,-0.0036 z"
         id="path71" /><path
         style="fill:#4e57d7"
         d="m 77.583091,150.80782 c 5.34789,-0.04 14.098983,-0.04 19.446873,0 5.347886,0.04 0.972344,0.0728 -9.723436,0.0728 -10.695781,0 -15.071327,-0.0327 -9.723437,-0.0728 z m 36.266529,5e-5 c 3.90292,-0.0413 10.21323,-0.0412 14.02292,8e-5 3.80968,0.0413 0.61638,0.0751 -7.09622,0.075 -7.71261,-4e-5 -10.82962,-0.0338 -6.9267,-0.0751 z m 30.43861,-31.41942 -0.0256,-23.01875 0.16309,1.190625 0.16308,1.190625 -0.1375,21.82813 -0.1375,21.82812 z m -86.146982,6.87917 C 58.034873,117.53637 57.87269,109.94331 57.78084,109.39416 l -0.167,-0.99845 -0.499488,0.57592 -0.499488,0.57591 -0.008,0.55483 -0.008,0.55483 -0.272799,-0.46859 -0.272799,-0.46858 -0.248322,0.15347 -0.248322,0.15347 v -0.29581 -0.29581 l -0.285792,0.17662 -0.285792,0.17663 0.103669,-7.76778 0.103669,-7.767787 0.563207,-1.516877 c 1.387233,-3.736214 4.42135,-6.431534 8.409247,-7.470249 l 1.557135,-0.405583 h 8.163889 8.163888 l 0.546202,-0.292318 0.546201,-0.292318 -0.431304,0.615773 -0.431304,0.615773 v 0.619981 c 0,0.340989 0.131355,0.86542 0.2919,1.165402 l 0.2919,0.54542 -0.358046,0.226884 -0.358046,0.226884 -7.697641,0.0041 -7.697641,0.0041 -1.492152,0.513375 c -2.801794,0.963959 -4.829932,2.796363 -6.070741,5.484861 l -0.58974,1.277806 -0.132291,23.283333 -0.132292,23.28334 z m 35.025756,5.7703 -0.03964,-1.90261 0.198437,-0.12303 0.198438,-0.12303 -0.0756,1.36419 c -0.134823,2.43293 -0.241118,2.72901 -0.281635,0.78448 z m 4.392127,-2.39618 c 1.928151,-0.0452 5.083309,-0.0452 7.011459,0 l 3.50573,0.0822 h -7.01146 -7.011458 z m -20.885545,-7.39132 c 0.190996,-0.0764 0.419199,-0.067 0.507118,0.0209 l 0.159852,0.15985 -0.507118,-0.0209 -0.507118,-0.0209 z m 48.418744,0 c 0.191,-0.0764 0.4192,-0.067 0.50712,0.0209 l 0.15985,0.15985 -0.50712,-0.0209 -0.50711,-0.0209 z m 5.71301,-1.20832 -0.50402,-0.59532 0.59531,0.50403 c 0.55945,0.47366 0.71576,0.6866 0.50403,0.6866 -0.0502,0 -0.3181,-0.26789 -0.59532,-0.59531 z m -55.190087,-1.96668 c 0.190996,-0.0764 0.419199,-0.067 0.507118,0.0209 l 0.159852,0.15985 -0.507118,-0.0209 -0.507118,-0.0209 z m 1.058333,0 c 0.190996,-0.0764 0.419199,-0.067 0.507118,0.0209 l 0.159852,0.15985 -0.507118,-0.0209 -0.507118,-0.0209 z m 48.669874,-0.006 c 0.32912,-0.0633 0.80537,-0.0609 1.05834,0.005 l 0.45993,0.1204 -1.05833,-0.005 -1.05833,-0.005 z m -0.4661,-16.23265 v -0.2802 l 0.26458,0.16352 c 0.14552,0.0899 0.26458,0.21603 0.26458,0.2802 0,0.0642 -0.11906,0.11667 -0.26458,0.11667 -0.14552,0 -0.26458,-0.12608 -0.26458,-0.28019 z m 19.04979,-6.929701 c -1.2e-4,-0.181901 -0.34366,-1.045104 -0.76342,-1.918229 l -0.76322,-1.5875 -1.2871,-1.243673 -1.28709,-1.243672 -1.5875,-0.736473 -1.5875,-0.736474 -4.36563,-0.09515 -4.36562,-0.09515 0.0904,-1.73187 0.0904,-1.73187 4.80444,0.147042 4.80444,0.147043 1.45521,0.448532 c 0.80036,0.246693 1.77124,0.673358 2.15751,0.948145 0.38626,0.274787 0.78322,0.499613 0.88212,0.499613 0.0989,0 0.81691,0.60803 1.59556,1.351177 l 1.41573,1.351177 0.65747,1.360802 c 0.67454,1.396127 1.22911,2.946084 1.22911,3.435229 v 0.275671 l -0.38846,-0.51359 c -0.21366,-0.282475 -0.39225,-0.774455 -0.39688,-1.093288 -0.005,-0.318834 -0.11731,-0.646998 -0.2504,-0.729253 l -0.24198,-0.149555 -0.13401,0.332378 -0.134,0.332377 -0.0209,-0.478636 -0.0209,-0.478635 -0.33073,0.198695 -0.33073,0.198696 0.35163,-0.433811 0.35163,-0.433811 -0.30546,-0.476874 -0.30547,-0.476874 0.16795,0.529167 0.16794,0.529166 -0.31616,-0.31372 -0.31617,-0.31372 -0.36097,0.360967 c -0.19853,0.198532 -0.36096,0.488535 -0.36096,0.64445 0,0.155915 -0.11907,0.283482 -0.26459,0.283482 -0.14552,0 -0.26458,0.131801 -0.26458,0.292891 v 0.29289 l 0.37498,-0.143892 0.37498,-0.143893 0.15115,0.39391 0.15116,0.393911 -0.30323,-0.187407 -0.30323,-0.187407 0.20401,0.636686 c 0.1122,0.350177 0.26252,1.08317 0.33405,1.628873 l 0.13004,0.992188 h -0.29237 -0.29237 z m -0.55399,-3.704167 0.35441,-0.463021 h -0.37297 -0.37297 l -0.0421,0.559073 c -0.0232,0.307491 -0.0148,0.51585 0.0186,0.463021 0.0334,-0.05283 0.22016,-0.304412 0.41508,-0.559073 z m 0.28961,-2.711979 0.32938,-0.396875 h -0.26867 c -0.14777,0 -0.33721,0.178594 -0.42097,0.396875 -0.0838,0.218281 -0.11108,0.396875 -0.0607,0.396875 0.0504,0 0.23981,-0.178594 0.42096,-0.396875 z m -16.62105,2.050521 -0.0477,-3.241146 h -3.42396 -3.42397 l -0.16672,-0.269756 -0.16672,-0.269756 0.29134,-0.882758 0.29133,-0.882758 -0.24082,-0.633424 -0.24083,-0.633423 h 3.51598 3.51598 l 0.17942,3.704166 c 0.0987,2.037292 0.13104,4.29948 0.0719,5.027084 L 127.08941,94.7822 Z M 83.531245,82.2357 l -0.16386,-0.626602 0.279545,0.279545 0.279546,0.279546 -0.115686,0.347056 -0.115685,0.347057 z M 125.6215,77.535834 c 0.19099,-0.07643 0.4192,-0.06703 0.50712,0.02089 l 0.15985,0.159852 -0.50712,-0.02089 -0.50712,-0.02089 z M 124.034,77.27125 c 0.19099,-0.07643 0.4192,-0.06703 0.50712,0.02089 l 0.15985,0.159853 -0.50712,-0.02089 -0.50712,-0.02089 z m -1.32292,-0.264583 c 0.191,-0.07643 0.4192,-0.06703 0.50712,0.02089 l 0.15985,0.159852 -0.50712,-0.02089 -0.50711,-0.02089 z M 86.463168,75.154584 c 0.190997,-0.07643 0.4192,-0.06703 0.507118,0.02089 l 0.159853,0.159852 -0.507118,-0.02089 -0.507118,-0.02089 z M 113.97983,74.89 c 0.191,-0.07643 0.4192,-0.06703 0.50712,0.02089 l 0.15985,0.159853 -0.50711,-0.02089 -0.50712,-0.02089 z M 90.961085,74.09625 c 0.190996,-0.07643 0.419199,-0.06703 0.507118,0.02089 l 0.159852,0.159853 -0.507118,-0.02089 -0.507118,-0.02089 z m 18.520835,-0.264583 c 0.19099,-0.07643 0.4192,-0.06703 0.50711,0.02089 l 0.15986,0.159852 -0.50712,-0.02089 -0.50712,-0.02089 z M 94.400668,73.3025 c 0.190996,-0.07643 0.419199,-0.06703 0.507118,0.02089 l 0.159852,0.159853 -0.507118,-0.02089 -0.507118,-0.02089 z m 1.058333,-0.264583 c 0.190996,-0.07643 0.419199,-0.06703 0.507118,0.02089 l 0.159852,0.159852 -0.507118,-0.02089 -0.507118,-0.02089 z m 10.583329,0 c 0.191,-0.07643 0.4192,-0.06703 0.50712,0.02089 l 0.15985,0.159852 -0.50711,-0.02089 -0.50712,-0.02089 z M 104.984,72.773333 c 0.191,-0.07643 0.4192,-0.06703 0.50712,0.02089 l 0.15985,0.159852 -0.50712,-0.02089 -0.50712,-0.02089 z m -6.101952,-0.523654 c 0.181901,-0.0734 0.479557,-0.0734 0.661458,0 l 0.330729,0.133452 h -0.661458 -0.661458 z m 3.439582,0 c 0.1819,-0.0734 0.47956,-0.0734 0.66146,0 l 0.33073,0.133452 h -0.66146 -0.66146 z"
         id="path70" /><path
         style="fill:#15171d"
         d="m 65.102458,150.30882 c -1.557671,-0.54792 -2.860473,-1.40854 -4.008621,-2.64808 -1.204161,-1.30001 -1.641225,-2.02883 -2.187064,-3.64703 l -0.439826,-1.3039 0.0063,-23.30235 0.0063,-23.302344 0.617943,-1.502412 0.617944,-1.502413 0.857717,-1.082957 c 1.103204,-1.392907 2.805952,-2.55701 4.686608,-3.204051 l 1.492152,-0.513375 7.697641,-0.0041 7.697641,-0.0041 0.358046,-0.226884 0.358046,-0.226884 -0.2919,-0.54542 c -0.452519,-0.84554 -0.35715,-1.423445 0.526831,-3.19245 l 0.818732,-1.638427 -0.130193,-0.339277 -0.130193,-0.339277 -2.077601,-0.555653 C 80.436281,80.921827 78.102376,80.347282 76.392506,79.95067 L 73.283652,79.229557 V 78.8982 c 0,-0.447428 0.0084,-0.449982 6.413528,-1.96029 3.093757,-0.729492 8.661106,-2.057848 12.371887,-2.9519 l 6.746875,-1.62555 1.984378,-0.02354 1.98437,-0.02354 5.29167,1.240805 c 2.91041,0.682443 7.2562,1.72636 9.65729,2.319815 2.40109,0.593456 5.7801,1.361533 7.5089,1.706838 l 3.14328,0.627828 0.2963,0.297362 0.29631,0.297361 -0.66146,0.508998 -0.66146,0.508998 -0.79375,0.01194 c -0.83862,0.01262 -6.37127,1.335468 -7.60677,1.818768 l -0.7276,0.284624 v 0.416563 c 0,0.570891 0.78513,2.044187 1.2842,2.409804 l 0.40913,0.299727 -0.0452,0.890898 c -0.0249,0.489993 -0.0784,1.188554 -0.11906,1.552356 l -0.0739,0.661458 3.50573,0.07382 3.50572,0.07383 v 3.281782 3.281783 l -0.52226,0.16576 c -0.28725,0.09117 -0.7635,0.472436 -1.05833,0.847261 l -0.53607,0.681501 v 3.27161 3.27161 h 0.20094 c 0.11051,0 0.35824,-0.25188 0.55051,-0.55975 l 0.34957,-0.55975 0.7622,0.89048 0.76221,0.89048 0.70167,-0.87374 0.70167,-0.87374 0.46317,0.41916 0.46316,0.41916 0.16537,-1.00063 c 0.091,-0.55034 0.16493,-1.893596 0.16438,-2.985003 l -9.9e-4,-1.984375 -0.32996,-0.661458 -0.32996,-0.661458 -0.85676,-0.378478 -0.85677,-0.378478 v -3.286221 -3.286221 l 4.43177,0.09705 4.43178,0.09705 1.5875,0.736199 1.5875,0.736198 1.37019,1.34857 1.3702,1.34857 0.74647,1.615169 0.74647,1.615169 v 23.812497 23.8125 l -0.89602,1.78554 -0.89602,1.78554 -1.17431,1.08244 -1.1743,1.08244 -1.50155,0.70389 -1.50155,0.7039 -35.32187,0.0555 -35.321876,0.0555 z m 43.579332,-18.253 0.0763,-2.1493 -0.60547,-0.16219 c -0.33301,-0.0892 -3.54451,-0.16382 -7.13668,-0.16581 l -6.531214,-0.004 -0.678683,0.25803 -0.678682,0.25804 v 1.7047 c 0,0.93758 0.07296,1.89483 0.162137,2.12722 l 0.162137,0.42253 7.576925,-0.0702 7.57692,-0.0702 z m -36.88071,-5.98231 c 0.09411,-0.47056 0.465675,-1.30068 0.825694,-1.84471 l 0.654581,-0.98914 0.848113,-0.43857 0.848113,-0.43858 1.401734,0.0126 1.401734,0.0126 0.898905,0.55556 c 1.069718,0.66112 1.582186,1.38859 2.029164,2.88046 l 0.331171,1.10536 h 1.579435 1.579436 l -0.174201,-1.12448 c -0.09581,-0.61847 -0.472988,-1.74142 -0.838172,-2.49545 l -0.663971,-1.37096 -0.968139,-0.85004 c -0.532477,-0.46752 -1.509969,-1.09392 -2.172206,-1.392 L 78.178404,119.1542 H 76.32632 74.474237 l -1.322916,0.59371 -1.322917,0.5937 -0.883521,0.84634 -0.883521,0.84634 -0.643119,1.25841 -0.643118,1.25841 -0.16297,1.18899 -0.162969,1.18899 h 1.59039 1.590391 z m 49.37211,0.40993 c 0,-0.24509 0.25255,-0.96732 0.56122,-1.60495 l 0.56122,-1.15933 1.00171,-0.6629 1.00171,-0.6629 h 1.48412 1.48411 l 0.89433,0.55273 c 1.06523,0.65835 1.57805,1.38724 2.02459,2.87763 l 0.33117,1.10536 h 1.57943 1.57944 l -0.1742,-1.12448 c -0.0958,-0.61847 -0.47299,-1.74142 -0.83817,-2.49545 l -0.66397,-1.37096 -0.96814,-0.85004 c -0.53248,-0.46752 -1.50997,-1.09518 -2.17221,-1.3948 l -1.20407,-0.54475 -1.98437,0.0106 -1.98438,0.0106 -1.32291,0.68103 -1.32292,0.68103 -0.84383,0.88353 -0.84384,0.88352 -0.67493,1.45521 -0.67494,1.4552 -0.003,0.8599 -0.003,0.8599 h 1.5875 1.5875 z"
         id="path69" /></g></g></svg>
